<?xml version="1.0" ?><svg id="Icons" viewBox="0 0 24 24" xmlns="http://www.w3.org/2000/svg"><title/><circle cx="12" cy="8.667" r="2"/><path d="M18.93,11.924a7.667,7.667,0,1,0-13.86,0L1.244,16.346a1,1,0,0,0,.632,1.646l3.672.46.46,3.672A1,1,0,0,0,7.8,22.6L12,17l4.2,5.6a1,1,0,0,0,1.792-.476l.46-3.672,3.672-.46a1,1,0,0,0,.632-1.646ZM7.685,19.42l-.248-1.988a1,1,0,0,0-.869-.869L3.98,16.24,6.2,13.671c.006.008.014.013.02.02a7.728,7.728,0,0,0,1.768,1.5l.023.013a7.612,7.612,0,0,0,2.093.884c.021.006.041.016.062.021Zm5.628-5.246c-.137.032-.275.059-.415.081-.076.012-.151.026-.229.035a5.226,5.226,0,0,1-1.338,0c-.078-.009-.153-.023-.229-.035-.14-.022-.278-.049-.415-.081-.091-.022-.181-.044-.27-.07-.12-.035-.237-.076-.354-.119s-.235-.087-.349-.137c-.147-.065-.292-.134-.432-.211-.1-.052-.185-.111-.276-.168s-.185-.117-.274-.181-.161-.117-.239-.179c-.119-.1-.235-.194-.346-.3-.041-.038-.084-.073-.123-.112a5.732,5.732,0,0,1-.457-.512c-.012-.014-.022-.03-.034-.045a5.939,5.939,0,0,1-.387-.566,5.667,5.667,0,1,1,9.708,0,5.939,5.939,0,0,1-.387.566c-.012.015-.022.031-.034.045a5.732,5.732,0,0,1-.457.512c-.039.039-.083.075-.124.113-.111.1-.226.2-.345.3-.078.062-.158.121-.239.179s-.181.123-.274.181-.181.116-.276.168c-.14.077-.285.146-.432.211-.114.05-.231.094-.349.137s-.234.084-.354.119C13.494,14.13,13.4,14.152,13.313,14.174Zm4.119,2.389a1,1,0,0,0-.869.869l-.248,1.988-2.484-3.312c.021,0,.041-.015.062-.021a7.612,7.612,0,0,0,2.093-.884l.023-.013a7.728,7.728,0,0,0,1.768-1.5c.006-.007.014-.012.02-.02L20.02,16.24Z"/></svg>